<svg width="143" height="76" viewBox="0 0 143 76" fill="none" xmlns="http://www.w3.org/2000/svg">
<path d="M4.25775 61.1636C3.26568 61.1636 2.403 60.797 1.66973 60.0637C0.93646 59.3304 0.569824 58.4677 0.569824 57.4757V17.6202C0.569824 16.6281 0.93646 15.7655 1.66973 15.0322C2.403 14.2989 3.26568 13.9323 4.25775 13.9323H26.45C27.4421 13.9323 28.3047 14.2989 29.038 15.0322C29.7713 15.7655 30.1379 16.6281 30.1379 17.6202V19.1083C30.1379 20.1004 29.7713 20.9631 29.038 21.6963C28.3047 22.4296 27.4421 22.7962 26.45 22.7962H12.1512C11.763 22.7962 11.5689 22.9688 11.5689 23.3138V32.9542C11.5689 33.3424 11.763 33.5365 12.1512 33.5365H25.156C26.1481 33.5365 27.0107 33.9031 27.744 34.6364C28.4773 35.3266 28.8439 36.1677 28.8439 37.1597V38.1949C28.8439 39.187 28.4773 40.0497 27.744 40.783C27.0107 41.4731 26.1481 41.8182 25.156 41.8182H12.1512C11.763 41.8182 11.5689 42.0123 11.5689 42.4005V57.4757C11.5689 58.4677 11.2023 59.3304 10.469 60.0637C9.77885 60.797 8.93775 61.1636 7.94567 61.1636H4.25775Z" fill="white"/>
<path d="M89.2291 36.5774C88.1939 34.9815 86.5979 34.1835 84.4413 34.1835C82.2846 34.1835 80.6671 34.9815 79.5887 36.5774C78.5535 38.1734 78.0359 40.7614 78.0359 44.3415C78.0359 47.9216 78.5535 50.5096 79.5887 52.1055C80.6671 53.7015 82.2846 54.4994 84.4413 54.4994C86.5979 54.4994 88.1939 53.7015 89.2291 52.1055C90.3074 50.5096 90.8466 47.9216 90.8466 44.3415C90.8466 40.7614 90.3074 38.1734 89.2291 36.5774ZM96.9284 57.2169C93.9522 60.2793 89.7898 61.8106 84.4413 61.8106C79.0927 61.8106 74.9303 60.2793 71.9541 57.2169C68.9779 54.1544 67.4897 49.8626 67.4897 44.3415C67.4897 38.8204 68.9779 34.5286 71.9541 31.4661C74.9303 28.4036 79.0927 26.8724 84.4413 26.8724C89.7898 26.8724 93.9522 28.4036 96.9284 31.4661C99.9047 34.5286 101.393 38.8204 101.393 44.3415C101.393 49.8626 99.9047 54.1544 96.9284 57.2169Z" fill="#F8D180"/>
<path d="M42.4836 45.4591L34.0137 18.1966C33.749 17.3144 33.8813 16.4983 34.4107 15.7483C34.9842 14.9984 35.7341 14.6234 36.6605 14.6234H40.6308C41.7336 14.6234 42.7041 14.9763 43.5423 15.6821C44.4246 16.3439 44.976 17.2041 45.1966 18.2628L50.7549 42.8122C50.7549 42.8563 50.777 42.8784 50.8211 42.8784C50.8652 42.8784 50.8873 42.8563 50.8873 42.8122L56.4456 18.2628C56.6662 17.2041 57.1956 16.3439 58.0337 15.6821C58.916 14.9763 59.9086 14.6234 61.0114 14.6234H64.717C65.6434 14.6234 66.3713 14.9984 66.9006 15.7483C67.4741 16.4983 67.6285 17.3144 67.3638 18.1966L58.8939 45.4591C58.541 46.5178 57.9014 47.378 56.975 48.0397C56.0927 48.7014 55.1001 49.0323 53.9973 49.0323H47.3802C46.2332 49.0323 45.1966 48.7014 44.2702 48.0397C43.3879 47.378 42.7924 46.5178 42.4836 45.4591Z" fill="#6CDEDD"/>
<circle cx="50.6854" cy="59.1785" r="5.14663" transform="rotate(-180 50.6854 59.1785)" fill="#D2684D"/>
<circle cx="84.4418" cy="16.6307" r="5.14663" transform="rotate(-180 84.4418 16.6307)" fill="#D2684D"/>
<circle cx="50.685" cy="73.3097" r="2.57331" transform="rotate(-180 50.685 73.3097)" fill="#F8D180"/>
<circle cx="84.4408" cy="2.91076" r="2.57331" transform="rotate(-180 84.4408 2.91076)" fill="#6CDEDD"/>
<path d="M109.627 61.1636C108.635 61.1636 107.773 60.797 107.039 60.0637C106.306 59.3304 105.939 58.4677 105.939 57.4757V17.6202C105.939 16.6281 106.306 15.7655 107.039 15.0322C107.773 14.2989 108.635 13.9323 109.627 13.9323H112.798C115.256 13.9323 117.046 15.0106 118.168 17.1673L131.755 42.8534C131.755 42.8965 131.776 42.9181 131.82 42.9181C131.863 42.9181 131.884 42.8965 131.884 42.8534V17.6202C131.884 16.6281 132.251 15.7655 132.984 15.0322C133.718 14.2989 134.58 13.9323 135.572 13.9323H138.743C139.735 13.9323 140.597 14.2989 141.331 15.0322C142.064 15.7655 142.43 16.6281 142.43 17.6202V57.4757C142.43 58.4677 142.064 59.3304 141.331 60.0637C140.597 60.797 139.735 61.1636 138.743 61.1636H135.572C133.114 61.1636 131.324 60.0853 130.202 57.9286L116.615 32.2425C116.615 32.1994 116.593 32.1778 116.55 32.1778C116.507 32.1778 116.486 32.1994 116.486 32.2425V57.4757C116.486 58.4677 116.119 59.3304 115.386 60.0637C114.652 60.797 113.79 61.1636 112.798 61.1636H109.627Z" fill="white"/>
</svg>
